<?xml version="1.0" encoding="UTF-8" standalone="no"?>
<!-- Created with Inkscape (http://www.inkscape.org/) -->

<svg
   xmlns:dc="http://purl.org/dc/elements/1.1/"
   xmlns:cc="http://creativecommons.org/ns#"
   xmlns:rdf="http://www.w3.org/1999/02/22-rdf-syntax-ns#"
   xmlns:svg="http://www.w3.org/2000/svg"
   xmlns="http://www.w3.org/2000/svg"
   xmlns:sodipodi="http://sodipodi.sourceforge.net/DTD/sodipodi-0.dtd"
   xmlns:inkscape="http://www.inkscape.org/namespaces/inkscape"
   width="256"
   height="256"
   viewBox="0 0 256 256"
   id="svg2"
   version="1.1"
   inkscape:version="0.91 r13725"
   sodipodi:docname="acceleration.svg"
   inkscape:export-filename="C:\Users\aritz\Pictures\acc_export\gear.png"
   inkscape:export-xdpi="180"
   inkscape:export-ydpi="180">
  <defs
     id="defs4" />
  <sodipodi:namedview
     id="base"
     pagecolor="#ffffff"
     bordercolor="#666666"
     borderopacity="1.0"
     inkscape:pageopacity="0.0"
     inkscape:pageshadow="2"
     inkscape:zoom="2"
     inkscape:cx="-42.254661"
     inkscape:cy="108.17187"
     inkscape:document-units="px"
     inkscape:current-layer="layer5"
     showgrid="false"
     units="px"
     inkscape:window-width="1920"
     inkscape:window-height="1017"
     inkscape:window-x="-8"
     inkscape:window-y="-8"
     inkscape:window-maximized="1" />
  <metadata
     id="metadata7">
    <rdf:RDF>
      <cc:Work
         rdf:about="">
        <dc:format>image/svg+xml</dc:format>
        <dc:type
           rdf:resource="http://purl.org/dc/dcmitype/StillImage" />
        <dc:title />
      </cc:Work>
    </rdf:RDF>
  </metadata>
  <g
     inkscape:label="Layer 1"
     inkscape:groupmode="layer"
     id="layer1"
     transform="translate(0,-796.36216)">
    <path
       sodipodi:type="star"
       style="opacity:1;fill:#ffc500;fill-opacity:1;stroke:#000000;stroke-width:5.9999943;stroke-linecap:round;stroke-linejoin:round;stroke-miterlimit:4;stroke-dasharray:none;stroke-dashoffset:0;stroke-opacity:1"
       id="path4692"
       sodipodi:sides="3"
       sodipodi:cx="128"
       sodipodi:cy="957.09246"
       sodipodi:r1="138.9285"
       sodipodi:r2="69.464249"
       sodipodi:arg1="0.52359878"
       sodipodi:arg2="1.5707963"
       inkscape:flatsided="false"
       inkscape:rounded="0"
       inkscape:randomized="0"
       d="m 248.31561,1026.5567 -120.31561,0 -120.3156083,0 L 67.842195,922.36035 128,818.16397 188.1578,922.36034 Z"
       inkscape:transform-center-y="-34.732143"
       transform="scale(1,1.0000019)" />
  </g>
  <g
     inkscape:groupmode="layer"
     id="layer2"
     inkscape:label="refrence shapes"
     style="display:none">
    <path
       transform="translate(0,-796.36216)"
       style="fill:none;fill-rule:evenodd;stroke:#000000;stroke-width:1px;stroke-linecap:butt;stroke-linejoin:miter;stroke-opacity:1"
       d="M 7.684,887.63016 128,1096.0232 128,957.36216 Z"
       id="path4716"
       inkscape:connector-curvature="0"
       sodipodi:nodetypes="cccc" />
    <path
       transform="translate(0,-796.36216)"
       style="fill:none;fill-rule:evenodd;stroke:#000000;stroke-width:1px;stroke-linecap:butt;stroke-linejoin:miter;stroke-opacity:1"
       d="m 7.684,887.63016 120.316,69.732 120.316,-69.732 z"
       id="path4718"
       inkscape:connector-curvature="0"
       sodipodi:nodetypes="cccc" />
    <path
       transform="translate(0,-796.36216)"
       style="fill:none;fill-rule:evenodd;stroke:#000000;stroke-width:1px;stroke-linecap:butt;stroke-linejoin:miter;stroke-opacity:1"
       d="M 248.316,887.63016 128,957.36216 128,1096.0232 Z"
       id="path4720"
       inkscape:connector-curvature="0"
       sodipodi:nodetypes="cccc" />
    <circle
       transform="translate(0,-796.36216)"
       style="opacity:0.98412697;fill:#000000;fill-opacity:1;stroke:none;stroke-width:1;stroke-linecap:round;stroke-linejoin:round;stroke-miterlimit:4;stroke-dasharray:none;stroke-dashoffset:0;stroke-opacity:1"
       id="path4722"
       cx="128.00842"
       cy="957.32257"
       r="5.2149124" />
  </g>
  <g
     inkscape:groupmode="layer"
     id="layer3"
     inkscape:label="gear"
     sodipodi:insensitive="true"
     style="display:inline">
    <path
       style="opacity:0.98412697;fill:#000000;fill-opacity:1;stroke:none;stroke-width:1;stroke-linecap:round;stroke-linejoin:round;stroke-miterlimit:4;stroke-dasharray:none;stroke-dashoffset:0;stroke-opacity:1"
       d="m 128.00781,95.994141 c -4.48493,0 -8.8627,0.454912 -13.09179,1.320312 l 1.22265,5.947267 c -3.83389,0.78453 -7.53168,1.94153 -11.05469,3.43164 l -2.36328,-5.59375 c -3.886177,1.64372 -7.578973,3.65528 -11.035153,5.99023 l 3.394531,5.03516 c -3.133202,2.11676 -6.05235,4.52696 -8.716797,7.19141 l -4.292969,-4.29297 c -2.9391,2.93911 -5.59926,6.15638 -7.93164,9.61328 l 5.033203,3.39453 c -2.116749,3.1332 -3.939578,6.4809 -5.429687,10.00391 l -5.59375,-2.36133 c -1.64372,3.88618 -2.919757,7.96427 -3.785157,12.19336 l 5.947266,1.22461 c -0.784524,3.83387 -1.197269,7.80333 -1.197266,11.86914 l -6.070312,0 c 0,4.48493 0.454912,8.8627 1.320312,13.09179 l 5.947266,-1.22265 c 0.784528,3.83387 1.94153,7.53168 3.431641,11.05469 l -5.59375,2.36328 c 1.643709,3.88618 3.655284,7.57896 5.990234,11.03515 l 5.033203,-3.39453 c 2.116752,3.13319 4.52697,6.05235 7.191406,8.7168 l -4.292969,4.29297 c 2.939111,2.9391 6.159045,5.59664 9.615235,7.93164 l 3.394531,-5.0332 c 3.133199,2.11679 6.480902,3.93958 10.003902,5.42968 l -2.36328,5.59375 c 3.88618,1.6437 7.96623,2.91976 12.19532,3.78516 l 1.22265,-5.94727 c 3.83387,0.7845 7.80333,1.19727 11.86914,1.19727 l 0,6.07031 c 4.48492,0 8.86465,-0.45491 13.09375,-1.32031 l -1.22461,-5.94727 c 3.83388,-0.7845 7.53363,-1.94154 11.05664,-3.43164 l 2.36329,5.59375 c 3.88616,-1.6437 7.57897,-3.65533 11.03515,-5.99023 l -3.39453,-5.0332 c 3.1332,-2.11671 6.05038,-4.52697 8.71484,-7.19141 l 4.29297,4.29297 c 2.93911,-2.9391 5.59865,-6.15905 7.9336,-9.61524 l -5.03516,-3.39453 c 2.11674,-3.13319 3.94152,-6.4809 5.43164,-10.0039 l 5.59375,2.36328 c 1.64372,-3.88618 2.91976,-7.96623 3.78516,-12.19532 l -5.94727,-1.22265 c 0.78453,-3.83388 1.1953,-7.80333 1.19531,-11.86914 l 6.07227,0 c 0,-4.48493 -0.45492,-8.86466 -1.32031,-13.09375 l -5.94727,1.22461 c -0.7844,-3.83328 -1.94187,-7.53218 -3.43164,-11.05469 -2.3e-4,-5.6e-4 2.4e-4,-0.001 0,-0.002 l 5.59375,-2.36133 c -1.64372,-3.88618 -3.65528,-7.58092 -5.99023,-11.03711 l -5.03516,3.39648 c -3.1e-4,-4.5e-4 3.1e-4,-0.001 0,-0.002 -2.11676,-3.1332 -4.52697,-6.0504 -7.19141,-8.71484 l 4.29297,-4.29297 c -2.93911,-2.93911 -6.1571,-5.59865 -9.61328,-7.9336 l -3.39648,5.03516 c -3.13282,-2.11635 -6.47947,-3.94175 -10.00196,-5.43164 l 2.36329,-5.59375 c -3.88618,-1.643711 -7.96623,-2.919757 -12.19532,-3.785157 l -1.22461,5.947267 c -3.83387,-0.78453 -7.80333,-1.19531 -11.86914,-1.19531 l 0,-6.072269 z"
       id="circle4729"
       inkscape:connector-curvature="0" />
  </g>
  <g
     inkscape:groupmode="layer"
     id="layer5"
     inkscape:label="tire"
     style="display:none">
    <path
       style="opacity:0.98412697;fill:#000000;fill-opacity:1;stroke:none;stroke-width:1;stroke-linecap:round;stroke-linejoin:round;stroke-miterlimit:4;stroke-dasharray:none;stroke-dashoffset:0;stroke-opacity:1"
       d="m 128.04754,98.617074 c -1.33725,-2.29e-4 -2.67943,0.04438 -4.02269,0.133135 -1.34325,0.08876 -2.55259,1.476061 -3.86701,1.648881 -1.31442,0.17283 -2.84251,-0.854541 -4.17468,-0.591872 -1.33215,0.262682 -2.65768,0.568152 -3.97273,0.915752 -1.31504,0.3476 -2.24285,1.94135 -3.50696,2.36379 -1.26412,0.42245 -2.96896,-0.29152 -4.22664,0.22187 -1.25769,0.51338 -2.49717,1.06754 -3.71462,1.66179 -1.217433,0.59425 -1.808589,2.33673 -2.954408,2.99685 -1.145821,0.66012 -2.950955,0.29931 -4.084825,1.06181 -1.133871,0.76251 -2.248042,1.56744 -3.33873,2.41097 -1.090689,0.84353 -1.348813,2.69279 -2.367705,3.59108 -1.018891,0.89828 -2.882726,0.91979 -3.864338,1.9022 -0.981616,0.98242 -1.932174,1.99571 -2.847893,3.036 -0.915719,1.04029 -0.811089,2.89443 -1.6363,3.96279 -0.825215,1.06839 -2.648444,1.43928 -3.409665,2.57215 -0.761221,1.13289 -1.480032,2.28505 -2.15265,3.45264 -0.672617,1.1676 -0.184548,2.93955 -0.765639,4.12851 -0.581091,1.18897 -2.279351,1.89319 -2.791628,3.14559 -0.512276,1.2524 -0.983822,2.52246 -1.413991,3.80666 -0.430169,1.28418 0.393033,2.9334 0.05329,4.21585 -0.339751,1.28245 -1.870527,2.30407 -2.132605,3.63068 -0.262078,1.32661 -0.481487,2.66029 -0.657582,3.99751 -0.176094,1.33722 0.948182,2.78725 0.861158,4.10088 -0.08702,1.31363 -1.392536,2.5994 -1.39279,3.93664 -2.54e-4,1.33724 0.04432,2.67945 0.133069,4.02277 0.08874,1.34331 1.476028,2.55276 1.648841,3.86726 0.172813,1.31451 -0.85457,2.84268 -0.591901,4.17495 0.262668,1.33228 0.568141,2.65793 0.915742,3.97311 0.3476,1.31516 1.941359,2.24311 2.36381,3.50734 0.422451,1.26423 -0.291504,2.96917 0.221894,4.22694 0.513401,1.25778 1.067572,2.49735 1.661838,3.71485 0.594265,1.21749 2.336763,1.80868 2.996906,2.95449 0.660141,1.14583 0.29935,2.95093 1.061866,4.08474 0.762517,1.13382 1.567473,2.24791 2.411009,3.33851 0.843537,1.09059 2.692811,1.34861 3.591096,2.36739 0.898284,1.01878 0.919792,2.88247 1.902214,3.86396 0.982421,0.98149 1.995703,1.93192 3.03599,2.84753 1.040286,0.91561 2.894405,0.81089 3.962773,1.63601 1.068366,0.82513 1.439244,2.64825 2.572106,3.40941 1.132862,0.76117 2.285009,1.47995 3.452582,2.15257 1.167572,0.67261 2.939496,0.18461 4.128436,0.76576 1.18895,0.58115 1.89314,2.27944 3.14552,2.79182 1.25237,0.51236 2.5224,0.98402 3.80658,1.4143 1.28418,0.43029 2.93339,-0.39277 4.21583,-0.0529 1.28244,0.33987 2.30406,1.87076 3.63067,2.13295 1.32661,0.26219 2.66029,0.4817 3.99753,0.6579 1.33724,0.1762 2.78731,-0.94801 4.10098,-0.86093 1.31367,0.0871 2.59947,1.39262 3.93678,1.39288 1.3373,2.5e-4 2.67958,-0.0444 4.02298,-0.13313 1.34341,-0.0888 2.55296,-1.47615 3.86757,-1.64904 1.31462,-0.1729 2.84292,0.85438 4.17531,0.59159 1.3324,-0.26278 2.65817,-0.56837 3.97346,-0.91608 1.31529,-0.34772 2.24331,-1.94157 3.50763,-2.36414 1.26432,-0.42257 2.96939,0.29124 4.22724,-0.22225 1.25784,-0.5135 2.49746,-1.06776 3.71498,-1.66209 1.21752,-0.59433 1.80868,-2.33684 2.95448,-2.997 1.1458,-0.66016 2.9509,-0.2994 4.08465,-1.06188 1.13376,-0.76247 2.24777,-1.56736 3.33827,-2.41081 1.09051,-0.84345 1.34839,-2.69259 2.36707,-3.59076 1.01867,-0.89818 2.88227,-0.91959 3.86365,-1.90188 0.98138,-0.98229 1.93169,-1.99545 2.84719,-3.03562 0.91549,-1.04015 0.81067,-2.89416 1.63571,-3.96242 0.82503,-1.06827 2.64807,-1.43906 3.40918,-2.57187 0.76111,-1.13279 1.47985,-2.2849 2.15245,-3.45245 0.6726,-1.16757 0.18459,-2.93952 0.76573,-4.1285 0.58113,-1.189 2.27943,-1.89328 2.7918,-3.14573 0.51236,-1.25246 0.98402,-2.52261 1.41431,-3.8069 0.43028,-1.2843 -0.39276,-2.93362 -0.0529,-4.21618 0.33988,-1.28256 1.87077,-2.30433 2.13297,-3.63106 0.2622,-1.32673 0.48171,-2.66053 0.65791,-3.99787 0.1762,-1.33734 -0.948,-2.78745 -0.86092,-4.10117 0.0871,-1.31373 1.39262,-2.5996 1.39287,-3.9369 2.5e-4,-1.3373 -0.0444,-2.67957 -0.13317,-4.02291 -0.0888,-1.34336 -1.47616,-2.5528 -1.64906,-3.86732 -0.17291,-1.31452 0.85436,-2.84274 0.59157,-4.17502 -0.26278,-1.33229 -0.56838,-2.65794 -0.91609,-3.9731 -0.34773,-1.31516 -1.94159,-2.24305 -2.36414,-3.50726 -0.42257,-1.26421 0.29125,-2.96917 -0.22224,-4.22692 -0.51348,-1.25776 -1.06773,-2.4973 -1.66205,-3.71476 -0.59432,-1.21747 -2.33682,-1.80859 -2.99696,-2.9544 -0.66015,-1.14579 -0.29936,-2.95092 -1.06183,-4.08473 -0.76246,-1.1338 -1.56733,-2.24789 -2.41077,-3.33849 -0.84344,-1.09059 -2.69258,-1.34859 -3.59074,-2.36738 -0.89816,-1.01878 -0.91957,-2.88253 -1.90186,-3.86403 -0.98229,-0.98149 -1.99545,-1.93194 -3.03561,-2.84755 -1.04018,-0.91562 -2.89418,-0.81088 -3.96246,-1.63601 -1.06826,-0.82512 -1.43908,-2.64827 -2.5719,-3.40943 -1.13282,-0.76117 -2.28494,-1.47994 -3.45252,-2.15253 -1.16759,-0.67261 -2.93956,-0.18452 -4.12858,-0.76561 -1.18901,-0.58109 -1.89332,-2.27935 -3.1458,-2.79163 -1.25248,-0.51229 -2.52264,-0.98384 -3.80697,-1.41402 -1.28431,-0.43017 -2.93363,0.39301 -4.21621,0.0533 -1.28257,-0.33977 -2.30434,-1.87055 -3.63106,-2.132638 -1.32674,-0.262089 -2.66054,-0.481502 -3.99785,-0.657598 -1.33731,-0.176096 -2.78739,0.948186 -4.10107,0.861176 -1.31368,-0.08698 -2.59953,-1.392507 -3.93676,-1.392735 z"
       id="path4766"
       inkscape:connector-curvature="0"
       sodipodi:nodetypes="sssssssssssssssssssssssssssssssssssssssssssssssssssssssssssssssssssssssssssssssssssssssssssssssss" />
  </g>
  <g
     inkscape:groupmode="layer"
     id="layer6"
     inkscape:label="turbine"
     style="display:none">
    <path
       d="M 173.371,206.324 138.78251,150.17427 82.644996,206.324 138.79473,171.73551 82.644996,115.598 117.23348,171.74773 173.371,115.598 117.22126,150.18649 Z"
       inkscape:randomized="0"
       inkscape:rounded="0"
       inkscape:flatsided="false"
       sodipodi:arg2="-0.78596484"
       sodipodi:arg1="0.78539816"
       sodipodi:r2="15.246104"
       sodipodi:r1="64.152969"
       sodipodi:cy="160.961"
       sodipodi:cx="128.008"
       sodipodi:sides="4"
       id="path4788"
       style="opacity:1;fill:#000000;fill-opacity:1;stroke:none;stroke-width:0.74224114;stroke-linecap:round;stroke-linejoin:round;stroke-miterlimit:4;stroke-dasharray:none;stroke-dashoffset:0;stroke-opacity:1"
       sodipodi:type="star" />
    <path
       sodipodi:type="star"
       style="opacity:1;fill:#000000;fill-opacity:1;stroke:#ffffff;stroke-width:0.74224114;stroke-linecap:round;stroke-linejoin:round;stroke-miterlimit:4;stroke-dasharray:none;stroke-dashoffset:0;stroke-opacity:1"
       id="path4790"
       sodipodi:sides="4"
       sodipodi:cx="128.008"
       sodipodi:cy="160.961"
       sodipodi:r1="64.152969"
       sodipodi:r2="38.951508"
       sodipodi:arg1="0.78539816"
       sodipodi:arg2="-0.79129297"
       inkscape:flatsided="false"
       inkscape:rounded="0"
       inkscape:randomized="0"
       d="M 173.371,206.324 155.38803,133.25624 82.644996,206.324 155.71275,188.34104 82.644996,115.598 100.62796,188.66575 173.371,115.598 100.30324,133.58096 Z" />
    <path
       d="M 173.371,206.324 155.38803,133.25624 82.644996,206.324 155.71275,188.34104 82.644996,115.598 100.62796,188.66575 173.371,115.598 100.30324,133.58096 Z"
       inkscape:randomized="0"
       inkscape:rounded="0"
       inkscape:flatsided="false"
       sodipodi:arg2="-0.79129297"
       sodipodi:arg1="0.78539816"
       sodipodi:r2="38.951508"
       sodipodi:r1="64.152969"
       sodipodi:cy="160.961"
       sodipodi:cx="128.008"
       sodipodi:sides="4"
       id="path4802"
       style="opacity:1;fill:#000000;fill-opacity:1;stroke:#ffc500;stroke-width:0.74224114;stroke-linecap:round;stroke-linejoin:round;stroke-miterlimit:4;stroke-dasharray:none;stroke-dashoffset:0;stroke-opacity:1"
       sodipodi:type="star"
       transform="matrix(0.96592583,0.25881905,-0.25881905,0.96592583,46.021539,-27.646294)" />
    <path
       transform="matrix(0.86602541,0.50000001,-0.50000001,0.86602541,97.630319,-42.43931)"
       sodipodi:type="star"
       style="opacity:1;fill:#000000;fill-opacity:1;stroke:#ffc500;stroke-width:0.74224114;stroke-linecap:round;stroke-linejoin:round;stroke-miterlimit:4;stroke-dasharray:none;stroke-dashoffset:0;stroke-opacity:1"
       id="path4804"
       sodipodi:sides="4"
       sodipodi:cx="128.008"
       sodipodi:cy="160.961"
       sodipodi:r1="64.152969"
       sodipodi:r2="38.951508"
       sodipodi:arg1="0.78539816"
       sodipodi:arg2="-0.79129297"
       inkscape:flatsided="false"
       inkscape:rounded="0"
       inkscape:randomized="0"
       d="M 173.371,206.324 155.38803,133.25624 82.644996,206.324 155.71275,188.34104 82.644996,115.598 100.62796,188.66575 173.371,115.598 100.30324,133.58096 Z" />
    <path
       d="M 173.371,206.324 155.38803,133.25624 82.644996,206.324 155.71275,188.34104 82.644996,115.598 100.62796,188.66575 173.371,115.598 100.30324,133.58096 Z"
       inkscape:randomized="0"
       inkscape:rounded="0"
       inkscape:flatsided="false"
       sodipodi:arg2="-0.79129297"
       sodipodi:arg1="0.78539816"
       sodipodi:r2="38.951508"
       sodipodi:r1="64.152969"
       sodipodi:cy="160.961"
       sodipodi:cx="128.008"
       sodipodi:sides="4"
       id="path4806"
       style="opacity:1;fill:#000000;fill-opacity:1;stroke:#ffc500;stroke-width:0.74224114;stroke-linecap:round;stroke-linejoin:round;stroke-miterlimit:4;stroke-dasharray:none;stroke-dashoffset:0;stroke-opacity:1"
       sodipodi:type="star"
       transform="matrix(0.70710678,0.70710679,-0.70710679,0.70710678,151.30929,-43.37094)" />
    <path
       transform="matrix(0.5,0.86602541,-0.86602541,0.5,203.40031,-30.377676)"
       sodipodi:type="star"
       style="opacity:1;fill:#000000;fill-opacity:1;stroke:#ffc500;stroke-width:0.74224114;stroke-linecap:round;stroke-linejoin:round;stroke-miterlimit:4;stroke-dasharray:none;stroke-dashoffset:0;stroke-opacity:1"
       id="path4808"
       sodipodi:sides="4"
       sodipodi:cx="128.008"
       sodipodi:cy="160.961"
       sodipodi:r1="64.152969"
       sodipodi:r2="38.951508"
       sodipodi:arg1="0.78539816"
       sodipodi:arg2="-0.79129297"
       inkscape:flatsided="false"
       inkscape:rounded="0"
       inkscape:randomized="0"
       d="M 173.371,206.324 155.38803,133.25624 82.644996,206.324 155.71275,188.34104 82.644996,115.598 100.62796,188.66575 173.371,115.598 100.30324,133.58096 Z" />
    <path
       d="M 173.371,206.324 155.38803,133.25624 82.644996,206.324 155.71275,188.34104 82.644996,115.598 100.62796,188.66575 173.371,115.598 100.30324,133.58096 Z"
       inkscape:randomized="0"
       inkscape:rounded="0"
       inkscape:flatsided="false"
       sodipodi:arg2="-0.79129297"
       sodipodi:arg1="0.78539816"
       sodipodi:r2="38.951508"
       sodipodi:r1="64.152969"
       sodipodi:cy="160.961"
       sodipodi:cx="128.008"
       sodipodi:sides="4"
       id="path4810"
       style="opacity:1;fill:#000000;fill-opacity:1;stroke:#ffc500;stroke-width:0.74224114;stroke-linecap:round;stroke-linejoin:round;stroke-miterlimit:4;stroke-dasharray:none;stroke-dashoffset:0;stroke-opacity:1"
       sodipodi:type="star"
       transform="matrix(0.25881904,0.96592583,-0.96592583,0.25881904,250.35347,-4.345001)" />
    <path
       style="opacity:1;fill:#000000;fill-opacity:1;stroke:#ffc500;stroke-width:0.74224114;stroke-linecap:round;stroke-linejoin:round;stroke-miterlimit:4;stroke-dasharray:none;stroke-dashoffset:0;stroke-opacity:1"
       d="m 82.644531,115.59766 12.074219,49.05468 0.742188,-36.29492 -12.816407,-12.75976 z m 90.726559,0 -49.0625,12.07422 36.30274,0.74218 12.75976,-12.8164 z m -12.07421,41.66406 -0.74219,36.30273 12.8164,12.75977 -12.07421,-49.0625 z M 95.404297,193.50781 82.644531,206.32422 131.70703,194.25 95.404297,193.50781 Z"
       id="path4814"
       inkscape:connector-curvature="0" />
    <path
       id="path4823"
       d="m 128.00781,96.597656 a 64.363144,64.363144 0 0 0 -64.363279,64.363284 64.363144,64.363144 0 0 0 64.363279,64.36328 64.363144,64.363144 0 0 0 64.36328,-64.36328 64.363144,64.363144 0 0 0 -64.36328,-64.363284 z m 0,11.500004 a 52.863144,52.863144 0 0 1 52.86328,52.86328 52.863144,52.863144 0 0 1 -52.86328,52.86328 52.863144,52.863144 0 0 1 -52.863279,-52.86328 52.863144,52.863144 0 0 1 52.863279,-52.86328 z"
       style="display:inline;opacity:1;fill:#000000;fill-opacity:1;stroke:#ffc500;stroke-width:1;stroke-linecap:round;stroke-linejoin:round;stroke-miterlimit:4;stroke-dasharray:none;stroke-dashoffset:0;stroke-opacity:1"
       inkscape:connector-curvature="0" />
    <path
       inkscape:connector-curvature="0"
       style="display:inline;opacity:1;fill:#000000;fill-opacity:1;stroke:#ffc500;stroke-width:1;stroke-linecap:round;stroke-linejoin:round;stroke-miterlimit:4;stroke-dasharray:none;stroke-dashoffset:0;stroke-opacity:1"
       d="m 128.00781,119.05065 a 41.910198,41.910198 0 0 0 -41.910286,41.91029 41.910198,41.910198 0 0 0 41.910286,41.91029 41.910198,41.910198 0 0 0 41.91029,-41.91029 41.910198,41.910198 0 0 0 -41.91029,-41.91029 z m 0,7.48825 a 34.421949,34.421949 0 0 1 34.42204,34.42204 34.421949,34.421949 0 0 1 -34.42204,34.42204 34.421949,34.421949 0 0 1 -34.422037,-34.42204 34.421949,34.421949 0 0 1 34.422037,-34.42204 z"
       id="path4825" />
  </g>
  <g
     inkscape:groupmode="layer"
     id="layer4"
     inkscape:label="center"
     style="display:inline">
    <circle
       r="39.363148"
       cy="957.32257"
       cx="128.00842"
       id="circle4734"
       style="opacity:1;fill:#ffc500;fill-opacity:1;stroke:none;stroke-width:1;stroke-linecap:round;stroke-linejoin:round;stroke-miterlimit:4;stroke-dasharray:none;stroke-dashoffset:0;stroke-opacity:1"
       transform="translate(0,-796.36216)" />
  </g>
</svg>
